<svg width="968" height="951" viewBox="0 0 968 951" fill="none" xmlns="http://www.w3.org/2000/svg">
<path d="M341.115 41.2396C388.855 78.6893 436.8 115.877 484.735 153.078C537.314 193.881 596.288 221.55 662.873 240.913C686.391 251.383 735.521 261.696 793.069 287.529C833.131 304.744 856.807 317.567 886.058 336.608C961.93 385.996 982.295 459.716 958.669 542.182C898.718 751.435 756.718 878.743 550.754 937.479C458.245 963.861 368.12 948.418 280.834 910.826C247.787 896.593 213.424 885.402 180.471 870.975C129.43 848.63 80.7786 821.898 45.7778 776.778C-3.05724 713.823 -7.23147 641.424 8.35548 567.536C26.2715 482.608 48.313 398.549 68.5731 314.115C79.9847 266.557 88.0418 217.858 103.714 171.747C122.353 116.908 142.817 60.942 193.109 25.2197C208.304 14.4264 218.383 4.76563 244.265 0.449098C290.613 7.43833 306.002 17.0876 341.115 41.2396Z" fill="#CCCCCC"/>
</svg>
