<svg width="559" height="553" viewBox="0 0 559 553" fill="none" xmlns="http://www.w3.org/2000/svg">
<path d="M328.354 523.246C303.644 499.144 278.802 475.177 253.967 451.203C226.726 424.908 195.063 405.652 158.588 390.629C145.927 383.269 118.77 374.432 87.8022 356.302C66.1967 344.115 53.5904 335.414 38.2114 322.855C-1.67909 290.28 -8.68559 247.333 9.72458 202.127C56.4395 87.4197 144.546 24.082 264.634 3.44351C318.572 -5.82637 368.602 8.41729 415.67 35.0176C433.49 45.0883 452.241 53.5191 469.997 63.6941C497.498 79.4542 523.379 97.5494 540.414 125.213C564.182 163.81 562.112 205.02 548.774 245.865C533.442 292.813 515.831 339.016 499.204 385.541C489.839 411.746 482.301 438.803 470.615 463.929C456.717 493.812 441.717 524.22 411.086 541.354C401.83 546.531 395.538 551.38 380.635 552.24C354.849 545.454 346.735 539.055 328.354 523.246Z" fill="#C6F3D6"/>
</svg>
