<svg width="768" height="662" viewBox="0 0 768 662" fill="none" xmlns="http://www.w3.org/2000/svg">
<path d="M0 422.68C0 372.417 -7.72776e-08 322.155 0.975108 271.255C9.90214 237.663 16.227 204.208 26.1598 171.864C44.3378 112.671 79.1325 66.0972 135.379 37.2475C169.887 19.5481 204.847 5.86359 244.722 4.24013C285.231 0.355829 332.013 -0.629069 371.557 0.356132C468.038 8.4605 566.505 42.1496 648.89 91.9663C705.619 126.269 752.996 170.619 763.64 240.891C767.53 285.04 771.419 334.382 762.926 379.754C755.861 425.277 740.984 471.948 727.926 517.443C723.558 532.665 714.077 547.221 704.132 559.873C680.259 590.243 646.988 607.943 611.931 622.026C557.584 643.859 503.043 657.707 442.515 659.581C392.84 661.119 322.829 664.2 270.127 659.49C234.667 657.707 201.339 649.954 167.347 643.175C124.315 634.594 87.6681 614.443 60.9954 578.076C29.3912 534.985 14.0176 485.799 5.07183 433.965C4.39241 430.028 1.73694 426.434 0 422.68Z" fill="#C6F4D6"/>
</svg>
